<?xml version="1.0" encoding="UTF-8"?>
<svg id="Calque_2" data-name="Calque 2" xmlns="http://www.w3.org/2000/svg" viewBox="0 0 2357.8 1006.11">
  <defs>
    <style>
      .cls-1 {
        fill: #07311d;
      }
    </style>
  </defs>
  <g id="HORIZONTAL">
    <g id="HORIZONTAL-2" data-name="HORIZONTAL">
      <g>
        <path class="cls-1" d="M900.46,415.49l-37.28,11.16,6.78,40.16,39.22-35.98c7.09-6.5.5-18.1-8.72-15.34ZM1163.39,196.45v115.12c0,13.01,0,25.53.45,40.54h-10c-.91-16.51-2.28-28.03-3.65-40.54l-13.19-115.12h-117.39l-13.2,115.12c-1.36,12.51-2.73,24.03-4.1,40.54h-10.01c.46-15.01.46-27.53.46-40.54v-115.12h-61.37v37.92c0,28.82-15.5,55.67-40.45,70.07l-44.11,25.47,12.99,76.87,34.91-10.45c2.78-.84,5.64-1.26,8.49-1.26,11.97,0,22.55,7.31,26.95,18.62,4.36,11.2,1.43,23.71-7.47,31.87l-48.76,44.75,8.7,51.5h183.38l4.55-73.08c.9-13.51,1.82-26.52,2.27-46.04h10.92c0,19.52,1.37,32.53,2.28,46.04l4.09,73.08h183.83l53.69-320.33v-25.03h-164.26Z"/>
        <path class="cls-1" d="M1493.73,252.5c-53.23,0-108.3,13.03-142.43,28.54v115.62l5.92,3.51c22.29-13.53,55.06-24.04,88.27-24.04,49.6,0,73.26,19.02,73.26,54.06v29.53h-6.36c-6.82-40.53-34.59-67.56-83.27-67.56-51.41,0-81.45,31.53-81.91,78.08,0,46.55,30.94,78.07,81,78.07,45.05,0,77.36-22.51,85.08-67.56h5.46l4.2,129.35c18.82-7.95,40.05-12.02,63.06-12.02,30.6,0,58.17,7.6,81.53,22.25v-228.67c0-97.6-60.96-139.16-173.81-139.16ZM1483.72,486.25c-10.92,0-17.3-6.5-17.3-16.01,0-10.52,7.28-16.52,17.3-16.52,11.37,0,17.29,7.01,17.29,16.52,0,10.01-6.82,16.01-17.29,16.01Z"/>
        <path class="cls-1" d="M2048.86,259.03h-157.45l-24.11,102.6h-9.11v-165.16h-149.7v462.66c18.08,25.25,29.49,57.18,33.67,94.02.87,7.47,9.09,11.59,15.62,7.89,21.81-12.41,48.37-18.85,78.11-18.85,7.65,0,15.09.45,22.3,1.33v-224.55c-2.27-2.98-4.5-5.89-6.67-8.73-4.07-5.31-7.9-10.32-11.51-15.08l-.07-.1-.09-.12c-4.27-5.86-9.57-13.17-5.12-21.91,2.53-4.98,7.61-8.08,13.24-8.08,2.74,0,5.39.71,8.12,2.17l.45.25.44.26c.4.26.81.5,1.21.77v-22.2h8.21l7.92,33.99c.4.32.81.64,1.23.96,3.37,2.63,7.19,5.63,11.81,9.1l.06.06.06.04c11.95,9.2,23.21,17.53,33.46,24.77,8.63,6.11,16.56,11.47,23.57,15.92l.08.06.09.06c5.91,3.86,11.67,7.42,17.31,10.65h86.87v-12.01l-61.45-154.65,61.45-101.11v-15.01Z"/>
        <path class="cls-1" d="M2260.43,430.18c-41.87,0-63.71-8-69.62-24.01h166.08c.46-4.49.91-12.52.91-19.02,0-80.59-50.5-134.65-153.33-134.65-95.11,0-158.35,59.07-158.35,148.17,0,67.38,32.19,113.97,92.25,134.98,9.77-5.95,20.11-12.8,31.11-20.62,12.87-9.12,25.13-18.42,36.56-27.18l.21-.14.21-.16c1.38-.97,4.24-3.23,7.28-5.62,4.9-3.84,10.44-8.19,14.83-11.26l.4-.28.25-.16c4.64-3.21,8.49-5.19,13.11-5.19s9.12,2.21,11.9,5.9l1.76,2.35c2.36,3.16,2.35,7.5-.02,10.65l-4.2,5.56-4.59,6.08c-2.45,3.36-5.02,6.66-7.96,10.39-2.68,3.4-5.69,7.25-9.23,11.96-7.49,9.84-15.06,19.87-22.35,30.05,4.89.23,9.91.33,15.02.33,53.24,0,106.93-12.52,134.69-31.52v-97.12l-5.46-3.99c-26.85,9.02-56.88,14.5-91.46,14.5ZM2209.02,370.63c10.46,0,19.56,7.01,20.47,22.54h-40.96c.46-13.03,7.28-22.54,20.49-22.54Z"/>
        <path class="cls-1" d="M1087.68,567.76v208.02c0,9.63-2.43,16.05-9.23,16.05-5.84,0-9.74-4.29-9.74-16.05v-208.02h-181.67c20.22,90.05,30.48,162.99,36.16,213.9,6.66,59.88,7.6,94.91,36.22,123.63,37.28,37.44,94.47,37,119.03,36.82,24.56-.2,79.04-.6,116.1-36.92,28.87-28.28,31.34-62.85,39.21-123.53,6.42-49.46,17.21-122.4,35.85-213.9h-181.93Z"/>
        <path class="cls-1" d="M1713.51,771.51c-.7-13.51-2.41-26.13-5.02-37.85-15.18-68.12-61.32-105.48-122.48-105.48-75.85,0-116.68,50.8-123.98,128.36h-8.75l-4.86-121.94h-155.09v369.01h159.95v-187.72h8.75c7.3,77.56,48.13,127.28,123.98,127.28,50.49,0,90.72-25.2,111.77-72.24,8.25-18.42,13.56-40.21,15.39-65.15.46-6.4.7-13.02.7-19.85,0-4.91-.12-9.73-.36-14.42ZM1502.88,813.75c-15.57,0-26.27-10.7-26.27-27.82s10.7-27.79,26.27-27.79c17.02,0,26.73,11.22,26.73,27.79s-9.71,27.82-26.73,27.82Z"/>
        <path class="cls-1" d="M2045.44,792.36c-56.41,0-88.01,29.95-88.01,75.4,0,48.68,35.5,75.95,88.01,75.95,56.41,0,87.5-29.96,87.5-75.95s-35.47-75.4-87.5-75.4Z"/>
        <path class="cls-1" d="M2222.66,586.44c-13.66,0-26.76-.68-39.24-2.08-2.29,3.76-4.47,7.55-6.59,11.34l22.24,175.8h111.82l24.65-202.42c-32.3,11.02-72.12,17.36-112.88,17.36ZM2254.98,792.36c-18.84,0-34.91,3.33-47.97,9.5.47.66.94,1.33,1.44,2.01,2.24,3.14,4.66,6.46,7.2,9.86,6.43,8.62,11.93,15.62,15.56,20.23,1.32,1.68,2.36,3.01,3.04,3.91,3.57,4.58,6.74,8.67,9.41,12.17,2.28,2.97,4.87,6.36,6.85,9.08,2.33,3.21,3.72,5.34,4.68,7.14l.02.08.05.08c4.8,9.41-.12,16.03-1.74,17.84l-4.34,4.8h-4.97c-.58.07-1.15.1-1.75.1-2.68,0-5.31-.7-8.03-2.13-1.83-.96-3.97-2.35-7.12-4.63-1.22-.87-2.51-1.84-3.85-2.85-2.8-2.12-6.07-4.65-9.86-7.58-2.33-1.8-4.85-3.74-7.57-5.83l-1.04-.81c-.97-.75-1.96-1.5-2.97-2.29-10.96-8.42-21.11-15.95-30.59-22.69-2.95,8.29-4.46,17.47-4.46,27.41,0,48.68,35.51,75.95,88.01,75.95,56.4,0,87.52-29.96,87.52-75.95s-35.49-75.4-87.52-75.4Z"/>
        <g>
          <path class="cls-1" d="M1895.82,809.4l-2.01,2.01c.55-.77,1.09-1.52,1.62-2.29.13.09.26.17.39.28Z"/>
          <path class="cls-1" d="M1923.4,867.76c0,45.99-31.11,75.95-87.52,75.95-52.49,0-87.98-27.27-87.98-75.95,0-45.45,31.6-75.4,87.98-75.4,17.88,0,33.81,3.21,47,9.41-8.15,11.49-16.53,22.54-24.43,32.92l-.03.04-.03.04c-3.49,4.63-6.5,8.47-9.15,11.86-5.18,6.63-9.28,11.87-13.48,18.56l-.22.38-.22.38c-4,7.35-1.82,13.11-.17,15.89,2.65,4.46,7.53,7.22,12.75,7.22,3.5,0,6.24-1.2,8-2.11l.54-.27.51-.32c6.7-4.21,11.94-8.31,18.59-13.51,3.37-2.65,7.19-5.65,11.81-9.13l.04-.03.04-.03c9.58-7.32,20.24-15.37,31.44-23.36,2.95,8.21,4.52,17.37,4.52,27.47Z"/>
        </g>
        <g>
          <path class="cls-1" d="M2242.75,874.58h-.03c-.06.07-.13.1-.26.1-.27,0-.72-.16-1.32-.48-1.17-.61-2.97-1.81-5.39-3.55-1.06-.77-2.26-1.66-3.56-2.65-4.46-3.37-10.31-7.93-17.33-13.33-1.32-1.01-2.66-2.07-4.02-3.11-16.44-12.64-35.77-26.91-54.86-39.26-7.02-4.56-13.98-8.83-20.79-12.69-30.31-17.92-60.16-27.72-90.54-27.72-23.52,0-47.36,5.88-72.01,18.44-13.17,6.41-26.43,14.2-39.4,22.61-19.24,12.51-37.84,26.39-54.6,39.21-13.56,10.2-20.06,16.08-29.37,21.93-.62.32-1.09.49-1.36.49-.52,0-.48-.58.14-1.72,5.8-9.31,11.71-15.84,21.9-29.4,7.79-10.22,15.91-20.93,23.84-32.05l2.01-2.01c-.13-.1-.26-.19-.39-.28.49-.68.97-1.36,1.45-2.04,15.62-22.2,30.37-45.87,40.53-69.94,27.47-62.01,7.85-117.77-27.88-171.49-4.3-6.72-9.02-13.62-13.95-20.58-14.65-20.67-31.17-41.64-44-58.64-2.56-3.53-4.94-7.01-3.59-7.01.26,0,.69.14,1.3.46,9.29,5.85,15.81,11.72,29.37,21.93,10.18,7.83,21.96,16.66,33.94,25.13,8.08,5.72,16.27,11.29,24.16,16.31,35.35,23.19,71.43,38.91,109.52,38.91,19.17,0,38.85-3.98,59.19-13.01,24.68-10.41,49.39-25.98,72.38-42.31,12.98-9.19,25.4-18.63,37.01-27.49,4.01-2.85,15.08-11.99,22-16.82.1-.06.22-.14.32-.2,2.48-1.72,4.39-2.82,5.17-2.82.13,0,.26.04.32.12l-225.35,225.35c-1.17,1.16-.27,3.07,1.24,3.07.14,0,.29-.03.45-.04,11.29-10.23,36.52-29.93,72.91-34.03,1.66-.19,7.45-1.39,15.05-1.39,4.57,0,9.83.42,15.26,1.79,3.69.94,6.98,2.14,10.05,4.6,6.82,5.49,8.5,13.74,9.02,16.18,4.49,20.64,23.23,65.83,26.47,71.9,8.34,15.49,19.06,31.54,28.92,45.25,2.53,3.52,5.02,6.92,7.37,10.06,8.86,11.9,16.11,20.89,18.77,24.36,3.53,4.56,6.69,8.63,9.38,12.14,2.66,3.47,4.89,6.4,6.6,8.74,1.74,2.42,2.94,4.2,3.56,5.38.45.85.56,1.39.39,1.58Z"/>
          <path class="cls-1" d="M1895.82,809.4l-2.01,2.01c.55-.77,1.09-1.52,1.62-2.29.13.09.26.17.39.28Z"/>
        </g>
      </g>
      <g>
        <path class="cls-1" d="M779.31,0c4.54,51.93-28.86,99.63-79.21,113.12l-466.53,125c-15.8,4.24-27.76,16.2-31.99,32.01-4.24,15.8.14,32.14,11.72,43.7l19.7,19.71c2.13,2.13,2.51,5.46.92,8.02l-17.3,22.95c-2.09,3.35-6.66,4.08-9.68,1.54l-95.32-79.98c-15.9-13.35-11.39-38.9,8.11-46L746.29,12.02l33.02-12.02h0Z"/>
        <path class="cls-1" d="M262.92,376.99c2.12.02,3.84-1.69,3.84-3.81v-34.39c0-2.78-3.63-3.83-5.11-1.48l-25.48,33.61c-1.59,2.52.21,5.81,3.19,5.84l23.56.22Z"/>
        <path class="cls-1" d="M293.49,376.84c2.09-.02,3.77-1.72,3.77-3.81v-30.81c-.01-5.4-7.08-7.44-9.96-2.87l-9.63,15.28c-1.82,2.89-2.79,6.24-2.8,9.65l-.05,8.88c0,2.12,1.72,3.84,3.85,3.82l14.82-.15Z"/>
        <path class="cls-1" d="M536.17,915.88l-44.16,72.43c-4.75,7.79.86,17.79,9.99,17.79h66.59c7.88,0,13.27-7.96,10.33-15.28l-10.07-25.08c-3.26-8.12-2.18-17.35,2.87-24.5l63.89-90.41c7.1-10.05,10.89-22.05,10.86-34.35l-.05-16.86c-.02-5.69-.55-11.35-1.59-16.92-.55-2.93-1.82-8.97-4.61-16.36-2.57-6.78-4.06-8.48-7.34-15.73-2.73-6.05-2.17-6.4-6.84-18.41-3.97-10.19-4.42-9.26-7.59-18.04-1.75-4.84-2.51-7.63-5.1-14.31-1.56-4.03-1.48-3.52-3.61-8.83-4.75-11.87-4.97-13.92-7.84-17.67-1.65-2.15-3.55-4.48-6.84-6.34-4.62-2.62-9.18-2.73-11.47-2.62-2.65,0-5.3,0-7.95,0-6.09-.05-11.48,5.53-13.23,11.35l-18.11,52.27c-2.16,7.16-.98,14.92,3.23,21.11l38.66,56.94c1.98,4.02,3.32,7.96,4.17,11.77,10.29,45.92-45.77,91.39-54.17,98.05Z"/>
        <path class="cls-1" d="M78.62,778.57l-8.15,3.14c-8.01,3.09-14.5,9.17-18.11,16.97L.93,909.84c-3.03,6.56,1.76,14.05,8.99,14.04l38.23-.06c7.35-.01,12.36-7.44,9.62-14.25l-8.95-22.27,24.64-53.25c1.4-3.02,4.59-4.78,7.89-4.36l116.62,14.98c4.27.55,7.36-3.96,5.32-7.75l-45.49-84.32c-1.17-2.17-3.77-3.13-6.07-2.24l-1.3.5-71.82,27.71Z"/>
        <path class="cls-1" d="M900.46,415.49l-37.28,11.16,6.78,40.16,39.22-35.98c7.09-6.5.5-18.1-8.72-15.34Z"/>
        <path class="cls-1" d="M469.08,346.6l359.42-148.88,3.06-1.27,55.74-23.09c14.59-6.04,24.09-20.27,24.09-36.05l-495.23,168.11c-1.07.36-2.16.54-3.24.54-4.19,0-8.11-2.65-9.54-6.84-1.79-5.27,1.04-11,6.3-12.79l466.69-158.41c20.94-7.11,35.02-26.76,35.02-48.87L250.75,255.79c-20.05,5.37-26.77,30.44-12.09,45.11l13.53,13.54c2.76,2.76,6.51,4.31,10.41,4.31h36.08c12.62,0,22.84,10.23,22.84,22.84l-.05,26.86c-.01,3.91,2.77,7.22,6.6,8.02,5.99,1.24,12.87,3.63,19.55,8.16,3.12,2.11,14.49,9.81,20.09,23.48,2.11,5.14,2.81,9.7,7.34,15.69,4.04,5.34,8.09,7.8,9.6,8.64,3.6,2.03,6.97,2.9,9.15,3.31,2.71.5,5.06.55,6.8.47,4.5-.04,11.5-.1,20.06-.19,28.47-.31,30.59.17,33.81.17,22.85,0,39.89,21.09,35.07,43.44l-13.21,61.37s-.01.01-.01.02l-.33,1.54-16.58,76.94c-.09.44-.51.71-.94.62-.45-.1-.69-.52-.63-.95,0,0,1.11-42.15,1.73-65.28.08-3.19-2.98-5.53-6.04-4.61-41.59,12.45-83.19,24.9-124.79,37.36-2.99.37-7.35.42-10.73-2.14-6.83-5.16-3.83-16.44-5.75-23.7-2.54-9.53-15.71-20.04-61.38-24.97-1.09-.03-1.43-1.31-.83-1.94.25-.25.67-.32.83-.33,1.51-.08,38.54.05,75.85.12.11,0,.22-.01.34-.01.61-.07,1.24-.11,1.87-.11h115.46c8.22,0,15.34-5.75,17.07-13.78l9.51-44.16c2.34-10.88-5.95-21.15-17.07-21.15h-59.42c-16.77,0-31.85-10.19-38.11-25.75l-4.54-11.29c-1.02-2.55-2.29-4.93-3.79-7.14-2.74-4.07-6.23-7.53-10.23-10.23,0,0,0,0,0,0-6.16-4.18-13.55-6.53-21.33-6.53h-57.57c-14.85,0-28.35,8.63-34.59,22.1l-39.78,85.96-45.23,97.76-11.1,24c-4.98,10.75-4.6,23.23,1.03,33.66l103.89,192.58c.71,1.32.46,2.95-.62,3.99l-134.23,129.97c-8.48,8.2-2.67,22.56,9.14,22.56h50.48c9.57,0,17.32-7.78,17.26-17.37-.02-4.29,2.61-8.17,6.56-9.88l112.21-58.77c10.43-5.46,19.71-12.86,27.34-21.81l43.72-51.19c5.57-7.16,8.77-15.87,9.12-24.94.07-1.56.12-3.12.16-4.69.22-15.23-.16-30.72-1.47-45.87-1.21-13.95-2.81-29.72-8.34-49.89-2.85-10.4-6.02-19.21-8.78-26.08-1.08-2.66-.55-5.7,1.34-7.87,1.55-1.78,3.66-2.63,5.76-2.63,2.78,0,5.54,1.5,6.91,4.3,4.59,9.36,7.9,17.62,10.3,24.22,0,0,7.9,21.81,13.65,54.97,1.33,7.68,2.4,15.35,3.2,23.42.44,4.51,6.19,6.14,8.97,2.57l30.8-39.61,65.81-84.65s1.02-1.31,1.02-1.31c12.19-15.67,30.92-24.83,50.77-24.83h29.58c18.03,0,34.19,11.12,40.63,27.95l24.52,64.05c6.84,17.88,16.64,34.48,29,49.1l11.96,14.15c7.37,8.72,10.08,20.46,7.28,31.53l-40.31,159.16c-2.05,8.1,4.07,15.97,12.42,15.97h49.22c7.7,0,12.96-7.79,10.09-14.93l-12.04-30c-2.47-6.14-2.77-12.93-.85-19.26l19.34-63.82,31.32-103.31,3.01-9.93c4.56-15.05,1.19-31.37-8.97-43.38l-12.43-14.72c-6.3-7.45-9.76-16.89-9.76-26.65v-112.15c-.23-4.1-1.17-10.41-4.8-16.9-4.01-7.16-9.65-11.52-18.05-16.58-8.93-5.35-22.6-12.46-41.22-18.27-.44-.23-.67-.75-.51-1.23.14-.45.56-.8,1.15-.7l108.64,18.23c7.97,1.33,16.1-1.07,22.06-6.54l64.47-59.16-6.78-40.16-51.74,15.48-102.67,30.75-75.99,22.75c-18.07,5.41-36.14,10.82-54.22,16.23-4.55,1.36-8.89-2.65-7.89-7.29l6.9-32.06c1.61-7.44,6.28-13.87,12.88-17.68l252.82-145.96,37.67-21.75c18.84-10.88,30.45-30.99,30.45-52.75l-74.54,36.52-304.42,149.14c-1.42.7-2.93,1.03-4.42,1.03-3.73,0-7.31-2.07-9.06-5.64-2.45-5-.38-11.04,4.62-13.48l309.78-151.77,54.04-26.48c.47-.23.94-.47,1.4-.72.44-.23.87-.47,1.29-.72.99-.57,1.95-1.19,2.88-1.84.27-.17.53-.36.79-.55,1.11-.81,2.17-1.66,3.19-2.57.24-.2.47-.42.7-.63.88-.81,1.72-1.66,2.53-2.55.25-.28.51-.56.75-.85.25-.28.49-.57.73-.86,2.66-3.23,4.83-6.84,6.44-10.71.13-.31.25-.62.37-.93.56-1.41,1.03-2.84,1.42-4.31.99-3.62,1.51-7.39,1.51-11.25l-27.16,11.25-55.73,23.08-351.71,145.69c-1.26.52-2.56.77-3.85.77-3.95,0-7.7-2.35-9.31-6.23-2.13-5.14.31-11.03,5.45-13.16ZM265.6,441.25c.68-13.94,11.91-25.5,25.83-26.54,12.85-.96,24.04,6.76,28.31,17.9,1.6,4.19-1.05,8.72-5.47,9.47-.44.08-.88.14-1.33.2-7.56.89-13.82-1.67-17.94-4.16-2.2-1.33-5.04,0-5.48,2.54-.61,3.59-2.15,8.13-5.78,12.29-1.71,1.96-3.58,3.47-5.45,4.63-3.55,2.21-8.24.82-10.03-2.96-1.91-4.02-2.89-8.57-2.66-13.37Z"/>
      </g>
    </g>
  </g>
</svg>