<?xml version="1.0" encoding="UTF-8"?>
<svg id="Calque_2" data-name="Calque 2" xmlns="http://www.w3.org/2000/svg" viewBox="0 0 611.43 913.41">
  <defs>
    <style>
      .cls-1 {
        fill: #d95213;
      }
    </style>
  </defs>
  <g id="TYPO">
    <g>
      <path class="cls-1" d="M0,30.65V0h201.21v141.01c0,15.94,0,31.27-.56,49.66h12.26c1.67-20.23,3.35-34.33,5.02-49.66L234.09,0h143.8l16.16,141.01c1.67,15.33,3.35,29.43,4.46,49.66h12.26c-.56-18.39-.56-33.72-.56-49.66V0h201.21v30.65l-65.77,392.38h-225.18l-5.02-89.51c-1.11-16.55-2.79-32.49-2.79-56.4h-13.37c-.56,23.91-1.68,39.85-2.79,56.4l-5.57,89.51H66.33L0,30.65Z"/>
      <path class="cls-1" d="M317.48,454.82v254.81c0,11.8-2.97,19.66-11.31,19.66-7.15,0-11.92-5.26-11.92-19.66v-254.81H71.71c24.78,110.31,37.34,199.66,44.29,262.02,8.16,73.34,9.32,116.26,44.37,151.43,45.67,45.87,115.72,45.32,145.8,45.1,30.09-.25,96.82-.74,142.22-45.23,35.37-34.63,38.39-76.98,48.03-151.31,7.87-60.59,21.09-149.93,43.92-262.02h-222.86Z"/>
    </g>
  </g>
</svg>